<svg
   xmlns="http://www.w3.org/2000/svg"
   viewBox="0 0 512.5 512.528">
  <g>
    <path
       fill="#0096fa"
       d="m 137.96249,0 h 236.57497 c 47.95936,0 65.36314,5.0178111 82.92547,14.39317 17.53568,9.375358 31.29502,23.134635 40.67025,40.670503 9.37542,17.535865 14.36681,34.939696 14.36681,82.925667 v 236.57577 c 0,47.95953 -4.99139,65.36338 -14.36681,82.89922 -9.37523,17.53588 -23.13457,31.29517 -40.67025,40.67052 -17.56233,9.4018 -34.96611,14.39316 -82.92547,14.39316 H 137.96249 c -47.959408,0 -65.363168,-4.99136 -82.898993,-14.39316 C 37.52769,488.7595 23.742024,475.00021 14.366694,457.46433 4.9913641,439.92849 0,422.52464 0,374.56511 V 137.98934 C 0,90.003369 4.9913641,72.599538 14.366694,55.063673 23.742024,37.527805 37.52769,23.768528 55.063497,14.39317 72.599322,5.0178111 90.003082,0 137.96249,0" />
    <path
       fill="white"
       d="m 267.50033,317.33582 c -38.00302,0 -68.79636,-30.79336 -68.79636,-68.79658 0,-38.00316 30.79334,-68.79658 68.79636,-68.79658 38.00313,0 68.79638,30.79342 68.79638,68.79658 0,38.00322 -30.79325,68.79658 -68.79638,68.79658 m -131.83551,86.67582 c 0,4.35757 3.51245,7.87 7.87004,7.87 h 47.29915 c 4.33109,0 7.86996,-3.51243 7.86996,-7.87 v -42.9946 c 20.01831,12.28041 43.57542,19.35811 68.79636,19.35811 72.81059,0 131.83543,-59.0251 131.83543,-131.83591 0,-72.81082 -59.02484,-131.83592 -131.83543,-131.83592 -30.97816,0 -59.42103,10.72225 -81.92177,28.60143 l -16.08332,-24.98331 c -1.42621,-2.2448 -3.935,-3.61812 -6.60232,-3.61812 h -19.35806 c -4.35759,0 -7.87004,3.53888 -7.87004,7.89643 z m 0,0" />
  </g>
</svg>
